<svg width="512" height="512" viewBox="0 0 512 512" fill="none" xmlns="http://www.w3.org/2000/svg">
<rect width="512" height="512" fill="black"/>
<path d="M71.68 344C69.76 344 68.128 343.424 66.784 342.272C65.632 340.928 65.056 339.296 65.056 337.376V149.312C65.056 147.2 65.632 145.568 66.784 144.416C68.128 143.072 69.76 142.4 71.68 142.4H84.928C88.384 142.4 90.784 143.744 92.128 146.432L187.744 293.312V149.312C187.744 147.2 188.32 145.568 189.472 144.416C190.816 143.072 192.448 142.4 194.368 142.4H208.192C210.304 142.4 211.936 143.072 213.088 144.416C214.432 145.568 215.104 147.2 215.104 149.312V337.088C215.104 339.008 214.432 340.64 213.088 341.984C211.936 343.328 210.4 344 208.48 344H194.656C191.776 344 189.472 342.656 187.744 339.968L92.416 194.528V337.376C92.416 339.296 91.744 340.928 90.4 342.272C89.056 343.424 87.424 344 85.504 344H71.68ZM274.81 344C272.89 344 271.258 343.424 269.914 342.272C268.762 340.928 268.186 339.296 268.186 337.376V149.312C268.186 147.2 268.762 145.568 269.914 144.416C271.258 143.072 272.89 142.4 274.81 142.4H289.21C292.282 142.4 294.778 143.936 296.698 147.008L357.466 263.36L418.81 147.008C419.194 145.856 419.962 144.8 421.114 143.84C422.458 142.88 424.09 142.4 426.01 142.4H440.122C442.234 142.4 443.866 143.072 445.018 144.416C446.362 145.568 447.034 147.2 447.034 149.312V337.376C447.034 339.296 446.362 340.928 445.018 342.272C443.674 343.424 442.042 344 440.122 344H426.01C424.09 344 422.458 343.424 421.114 342.272C419.962 340.928 419.386 339.296 419.386 337.376V195.68L371.29 289.568C369.37 293.6 366.298 295.616 362.074 295.616H353.146C348.922 295.616 345.85 293.6 343.93 289.568L295.546 195.68V337.376C295.546 339.296 294.874 340.928 293.53 342.272C292.378 343.424 290.842 344 288.922 344H274.81Z" fill="white"/>
<path d="M66.784 342.272L60.7099 347.478L61.1104 347.946L61.5777 348.346L66.784 342.272ZM66.784 144.416L72.4408 150.073L72.4409 150.073L66.784 144.416ZM92.128 146.432L84.9726 150.01L85.1757 150.416L85.4235 150.797L92.128 146.432ZM187.744 293.312L181.039 297.677L195.744 320.265V293.312H187.744ZM189.472 144.416L195.129 150.073L195.129 150.073L189.472 144.416ZM213.088 144.416L207.014 149.622L207.414 150.09L207.882 150.49L213.088 144.416ZM213.088 341.984L207.431 336.327L207.214 336.544L207.014 336.778L213.088 341.984ZM187.744 339.968L194.473 335.642L194.454 335.612L194.435 335.583L187.744 339.968ZM92.416 194.528L99.1069 190.142L84.416 167.729V194.528H92.416ZM90.4 342.272L95.6063 348.346L95.8396 348.146L96.0569 347.929L90.4 342.272ZM71.68 336C71.5283 336 71.551 335.979 71.6786 336.024C71.7378 336.045 71.8015 336.074 71.8631 336.11C71.9243 336.145 71.9671 336.178 71.9903 336.198L61.5777 348.346C64.4987 350.85 68.0246 352 71.68 352V336ZM72.8581 337.066C72.878 337.089 72.9108 337.132 72.9463 337.193C72.9821 337.254 73.011 337.318 73.0319 337.377C73.0769 337.505 73.056 337.528 73.056 337.376H57.056C57.056 341.031 58.2062 344.557 60.7099 347.478L72.8581 337.066ZM73.056 337.376V149.312H57.056V337.376H73.056ZM73.056 149.312C73.056 148.97 73.104 148.962 73.0319 149.167C72.9946 149.272 72.9301 149.42 72.8251 149.589C72.7193 149.759 72.5893 149.924 72.4408 150.073L61.1272 138.759C58.0672 141.819 57.056 145.734 57.056 149.312H73.056ZM72.4409 150.073C72.424 150.09 72.2958 150.205 72.062 150.301C71.8298 150.397 71.6725 150.4 71.68 150.4V134.4C67.6625 134.4 63.9885 135.898 61.1271 138.759L72.4409 150.073ZM71.68 150.4H84.928V134.4H71.68V150.4ZM84.928 150.4C85.2778 150.4 85.4674 150.434 85.5325 150.449C85.5906 150.463 85.5332 150.456 85.4112 150.388C85.2838 150.317 85.1587 150.218 85.0597 150.112C84.9647 150.009 84.9456 149.956 84.9726 150.01L99.2834 142.854C97.9639 140.215 95.9569 137.956 93.2288 136.428C90.5657 134.937 87.6795 134.4 84.928 134.4V150.4ZM85.4235 150.797L181.039 297.677L194.449 288.947L98.8325 142.067L85.4235 150.797ZM195.744 293.312V149.312H179.744V293.312H195.744ZM195.744 149.312C195.744 148.97 195.792 148.962 195.72 149.167C195.683 149.272 195.618 149.42 195.513 149.589C195.407 149.759 195.277 149.924 195.129 150.073L183.815 138.759C180.755 141.819 179.744 145.734 179.744 149.312H195.744ZM195.129 150.073C195.112 150.09 194.984 150.205 194.75 150.301C194.518 150.397 194.361 150.4 194.368 150.4V134.4C190.35 134.4 186.676 135.898 183.815 138.759L195.129 150.073ZM194.368 150.4H208.192V134.4H194.368V150.4ZM208.192 150.4C208.404 150.4 208.274 150.433 207.954 150.301C207.598 150.155 207.258 149.907 207.014 149.622L219.162 139.21C216.195 135.748 212.143 134.4 208.192 134.4V150.4ZM207.882 150.49C207.597 150.246 207.349 149.906 207.203 149.55C207.071 149.23 207.104 149.1 207.104 149.312H223.104C223.104 145.361 221.756 141.309 218.294 138.342L207.882 150.49ZM207.104 149.312V337.088H223.104V149.312H207.104ZM207.104 337.088C207.104 337.095 207.107 336.938 207.203 336.706C207.299 336.472 207.414 336.344 207.431 336.327L218.745 347.641C221.606 344.78 223.104 341.106 223.104 337.088H207.104ZM207.014 336.778C207.177 336.587 207.469 336.34 207.865 336.167C208.245 336.001 208.496 336 208.48 336V352C212.512 352 216.35 350.471 219.162 347.19L207.014 336.778ZM208.48 336H194.656V352H208.48V336ZM194.656 336C194.563 336 194.557 335.99 194.612 336.004C194.67 336.019 194.739 336.047 194.799 336.082C194.856 336.115 194.856 336.127 194.805 336.075C194.75 336.02 194.633 335.89 194.473 335.642L181.015 344.294C184.023 348.975 188.718 352 194.656 352V336ZM194.435 335.583L99.1069 190.142L85.7252 198.913L181.053 344.353L194.435 335.583ZM84.416 194.528V337.376H100.416V194.528H84.416ZM84.416 337.376C84.416 337.383 84.419 337.226 84.5146 336.994C84.6108 336.76 84.7263 336.632 84.7431 336.615L96.0569 347.929C98.9182 345.068 100.416 341.394 100.416 337.376H84.416ZM85.1937 336.198C85.2169 336.178 85.2597 336.145 85.3209 336.11C85.3825 336.074 85.4462 336.045 85.5054 336.024C85.633 335.979 85.6557 336 85.504 336V352C89.1594 352 92.6853 350.85 95.6063 348.346L85.1937 336.198ZM85.504 336H71.68V352H85.504V336ZM269.914 342.272L263.84 347.478L264.24 347.946L264.708 348.346L269.914 342.272ZM269.914 144.416L275.571 150.073L275.571 150.073L269.914 144.416ZM296.698 147.008L303.789 143.304L303.646 143.03L303.482 142.768L296.698 147.008ZM357.466 263.36L350.375 267.064L357.433 280.577L364.543 267.091L357.466 263.36ZM418.81 147.008L425.887 150.739L426.192 150.159L426.399 149.538L418.81 147.008ZM421.114 143.84L416.464 137.33L416.222 137.503L415.993 137.694L421.114 143.84ZM445.018 144.416L438.944 149.622L439.344 150.09L439.812 150.49L445.018 144.416ZM445.018 342.272L450.224 348.346L450.458 348.146L450.675 347.929L445.018 342.272ZM421.114 342.272L415.04 347.478L415.44 347.946L415.908 348.346L421.114 342.272ZM419.386 195.68H427.386L412.266 192.033L419.386 195.68ZM371.29 289.568L364.17 285.921L364.117 286.024L364.067 286.129L371.29 289.568ZM343.93 289.568L351.153 286.129L351.099 286.015L351.041 285.903L343.93 289.568ZM295.546 195.68L302.657 192.015L287.546 195.68H295.546ZM293.53 342.272L287.873 336.615L287.873 336.615L293.53 342.272ZM274.81 336C274.658 336 274.681 335.979 274.809 336.024C274.868 336.045 274.932 336.074 274.993 336.11C275.054 336.145 275.097 336.178 275.12 336.198L264.708 348.346C267.629 350.85 271.155 352 274.81 352V336ZM275.988 337.066C276.008 337.089 276.041 337.132 276.076 337.193C276.112 337.254 276.141 337.318 276.162 337.377C276.207 337.505 276.186 337.528 276.186 337.376H260.186C260.186 341.031 261.336 344.557 263.84 347.478L275.988 337.066ZM276.186 337.376V149.312H260.186V337.376H276.186ZM276.186 149.312C276.186 148.97 276.234 148.962 276.162 149.167C276.125 149.272 276.06 149.42 275.955 149.589C275.849 149.759 275.719 149.924 275.571 150.073L264.257 138.759C261.197 141.819 260.186 145.734 260.186 149.312H276.186ZM275.571 150.073C275.554 150.09 275.426 150.205 275.192 150.301C274.96 150.397 274.803 150.4 274.81 150.4V134.4C270.792 134.4 267.118 135.898 264.257 138.759L275.571 150.073ZM274.81 150.4H289.21V134.4H274.81V150.4ZM289.21 150.4C289.305 150.4 289.318 150.411 289.279 150.4C289.262 150.395 289.242 150.389 289.223 150.38C289.215 150.376 289.207 150.373 289.202 150.37C289.199 150.369 289.197 150.367 289.195 150.367C289.194 150.366 289.193 150.365 289.193 150.365C289.193 150.365 289.194 150.366 289.196 150.367C289.197 150.368 289.2 150.37 289.203 150.372C289.21 150.377 289.221 150.385 289.236 150.397C289.265 150.421 289.312 150.462 289.374 150.527C289.5 150.658 289.686 150.884 289.914 151.248L303.482 142.768C300.407 137.847 295.573 134.4 289.21 134.4V150.4ZM289.607 150.712L350.375 267.064L364.557 259.656L303.789 143.304L289.607 150.712ZM364.543 267.091L425.887 150.739L411.733 143.277L350.389 259.629L364.543 267.091ZM426.399 149.538C426.313 149.797 426.206 149.972 426.144 150.057C426.087 150.135 426.093 150.104 426.235 149.986L415.993 137.694C413.966 139.383 412.174 141.617 411.221 144.478L426.399 149.538ZM425.764 150.35C425.731 150.373 425.695 150.394 425.66 150.411C425.644 150.419 425.63 150.425 425.619 150.429C425.609 150.433 425.603 150.435 425.603 150.435C425.603 150.435 425.61 150.433 425.625 150.43C425.64 150.427 425.663 150.422 425.695 150.418C425.76 150.409 425.863 150.4 426.01 150.4V134.4C422.702 134.4 419.376 135.25 416.464 137.33L425.764 150.35ZM426.01 150.4H440.122V134.4H426.01V150.4ZM440.122 150.4C440.334 150.4 440.204 150.433 439.884 150.301C439.528 150.155 439.188 149.907 438.944 149.622L451.092 139.21C448.125 135.748 444.073 134.4 440.122 134.4V150.4ZM439.812 150.49C439.527 150.246 439.279 149.906 439.133 149.55C439.001 149.23 439.034 149.1 439.034 149.312H455.034C455.034 145.361 453.686 141.309 450.224 138.342L439.812 150.49ZM439.034 149.312V337.376H455.034V149.312H439.034ZM439.034 337.376C439.034 337.383 439.037 337.226 439.133 336.994C439.229 336.76 439.344 336.632 439.361 336.615L450.675 347.929C453.536 345.068 455.034 341.394 455.034 337.376H439.034ZM439.812 336.198C439.835 336.178 439.878 336.145 439.939 336.11C440 336.074 440.064 336.045 440.123 336.024C440.251 335.979 440.274 336 440.122 336V352C443.777 352 447.303 350.85 450.224 348.346L439.812 336.198ZM440.122 336H426.01V352H440.122V336ZM426.01 336C425.858 336 425.881 335.979 426.009 336.024C426.068 336.045 426.132 336.074 426.193 336.11C426.254 336.145 426.297 336.178 426.32 336.198L415.908 348.346C418.829 350.85 422.355 352 426.01 352V336ZM427.188 337.066C427.208 337.089 427.241 337.132 427.276 337.193C427.312 337.254 427.341 337.318 427.362 337.377C427.407 337.505 427.386 337.528 427.386 337.376H411.386C411.386 341.031 412.536 344.557 415.04 347.478L427.188 337.066ZM427.386 337.376V195.68H411.386V337.376H427.386ZM412.266 192.033L364.17 285.921L378.41 293.215L426.506 199.327L412.266 192.033ZM364.067 286.129C363.601 287.108 363.229 287.368 363.157 287.416C363.111 287.445 362.866 287.616 362.074 287.616V303.616C365.506 303.616 368.909 302.779 371.935 300.792C374.935 298.824 377.059 296.06 378.513 293.007L364.067 286.129ZM362.074 287.616H353.146V303.616H362.074V287.616ZM353.146 287.616C352.354 287.616 352.109 287.445 352.063 287.416C351.991 287.368 351.619 287.108 351.153 286.129L336.707 293.007C338.161 296.06 340.285 298.824 343.285 300.792C346.311 302.779 349.714 303.616 353.146 303.616V287.616ZM351.041 285.903L302.657 192.015L288.435 199.345L336.819 293.233L351.041 285.903ZM287.546 195.68V337.376H303.546V195.68H287.546ZM287.546 337.376C287.546 337.383 287.549 337.226 287.645 336.994C287.741 336.76 287.856 336.632 287.873 336.615L299.187 347.929C302.048 345.068 303.546 341.394 303.546 337.376H287.546ZM287.873 336.615C288.11 336.378 288.411 336.187 288.705 336.077C288.974 335.976 289.083 336 288.922 336V352C292.556 352 296.269 350.847 299.187 347.929L287.873 336.615ZM288.922 336H274.81V352H288.922V336Z" fill="black"/>
<path d="M71.98 400C71.86 400 71.758 399.964 71.674 399.892C71.602 399.808 71.566 399.706 71.566 399.586V387.832C71.566 387.7 71.602 387.598 71.674 387.526C71.758 387.442 71.86 387.4 71.98 387.4H72.808C73.024 387.4 73.174 387.484 73.258 387.652L79.234 396.832V387.832C79.234 387.7 79.27 387.598 79.342 387.526C79.426 387.442 79.528 387.4 79.648 387.4H80.512C80.644 387.4 80.746 387.442 80.818 387.526C80.902 387.598 80.944 387.7 80.944 387.832V399.568C80.944 399.688 80.902 399.79 80.818 399.874C80.746 399.958 80.65 400 80.53 400H79.666C79.486 400 79.342 399.916 79.234 399.748L73.276 390.658V399.586C73.276 399.706 73.234 399.808 73.15 399.892C73.066 399.964 72.964 400 72.844 400H71.98ZM107.356 400C107.236 400 107.134 399.964 107.05 399.892C106.978 399.808 106.942 399.706 106.942 399.586V387.814C106.942 387.694 106.978 387.598 107.05 387.526C107.134 387.442 107.236 387.4 107.356 387.4H108.31C108.43 387.4 108.526 387.442 108.598 387.526C108.682 387.598 108.724 387.694 108.724 387.814V399.586C108.724 399.706 108.682 399.808 108.598 399.892C108.526 399.964 108.43 400 108.31 400H107.356ZM135.138 400C135.018 400 134.916 399.964 134.832 399.892C134.76 399.808 134.724 399.706 134.724 399.586V387.832C134.724 387.7 134.76 387.598 134.832 387.526C134.916 387.442 135.018 387.4 135.138 387.4H136.056C136.188 387.4 136.29 387.442 136.362 387.526C136.446 387.598 136.488 387.7 136.488 387.832V392.8H142.68V387.832C142.68 387.7 142.716 387.598 142.788 387.526C142.872 387.442 142.974 387.4 143.094 387.4H144.012C144.144 387.4 144.246 387.442 144.318 387.526C144.402 387.598 144.444 387.7 144.444 387.832V399.586C144.444 399.706 144.402 399.808 144.318 399.892C144.234 399.964 144.132 400 144.012 400H143.094C142.974 400 142.872 399.964 142.788 399.892C142.716 399.808 142.68 399.706 142.68 399.586V394.42H136.488V399.586C136.488 399.706 136.446 399.808 136.362 399.892C136.278 399.964 136.176 400 136.056 400H135.138ZM169.587 400C169.491 400 169.407 399.964 169.335 399.892C169.263 399.82 169.227 399.736 169.227 399.64C169.227 399.544 169.233 399.478 169.245 399.442L173.709 387.796C173.805 387.532 173.997 387.4 174.285 387.4H175.509C175.797 387.4 175.989 387.532 176.085 387.796L180.531 399.442L180.567 399.64C180.567 399.736 180.531 399.82 180.459 399.892C180.387 399.964 180.303 400 180.207 400H179.289C179.157 400 179.055 399.97 178.983 399.91C178.911 399.838 178.863 399.766 178.839 399.694L177.849 397.138H171.945L170.955 399.694C170.931 399.766 170.877 399.838 170.793 399.91C170.721 399.97 170.625 400 170.505 400H169.587ZM177.327 395.59L174.897 389.2L172.467 395.59H177.327ZM205.766 400C205.646 400 205.544 399.964 205.46 399.892C205.388 399.808 205.352 399.706 205.352 399.586V387.814C205.352 387.694 205.388 387.598 205.46 387.526C205.544 387.442 205.646 387.4 205.766 387.4H206.72C206.84 387.4 206.936 387.442 207.008 387.526C207.092 387.598 207.134 387.694 207.134 387.814V398.434H213.11C213.242 398.434 213.344 398.476 213.416 398.56C213.5 398.632 213.542 398.734 213.542 398.866V399.586C213.542 399.706 213.5 399.808 213.416 399.892C213.332 399.964 213.23 400 213.11 400H205.766Z" fill="white"/>
<path d="M270.98 400C270.86 400 270.758 399.964 270.674 399.892C270.602 399.808 270.566 399.706 270.566 399.586V387.832C270.566 387.7 270.602 387.598 270.674 387.526C270.758 387.442 270.86 387.4 270.98 387.4H271.88C272.072 387.4 272.228 387.496 272.348 387.688L276.146 394.96L279.98 387.688C280.004 387.616 280.052 387.55 280.124 387.49C280.208 387.43 280.31 387.4 280.43 387.4H281.312C281.444 387.4 281.546 387.442 281.618 387.526C281.702 387.598 281.744 387.7 281.744 387.832V399.586C281.744 399.706 281.702 399.808 281.618 399.892C281.534 399.964 281.432 400 281.312 400H280.43C280.31 400 280.208 399.964 280.124 399.892C280.052 399.808 280.016 399.706 280.016 399.586V390.73L277.01 396.598C276.89 396.85 276.698 396.976 276.434 396.976H275.876C275.612 396.976 275.42 396.85 275.3 396.598L272.276 390.73V399.586C272.276 399.706 272.234 399.808 272.15 399.892C272.078 399.964 271.982 400 271.862 400H270.98ZM306.871 400C306.775 400 306.691 399.964 306.619 399.892C306.547 399.82 306.511 399.736 306.511 399.64C306.511 399.544 306.517 399.478 306.529 399.442L310.993 387.796C311.089 387.532 311.281 387.4 311.569 387.4H312.793C313.081 387.4 313.273 387.532 313.369 387.796L317.815 399.442L317.851 399.64C317.851 399.736 317.815 399.82 317.743 399.892C317.671 399.964 317.587 400 317.491 400H316.573C316.441 400 316.339 399.97 316.267 399.91C316.195 399.838 316.147 399.766 316.123 399.694L315.133 397.138H309.229L308.239 399.694C308.215 399.766 308.161 399.838 308.077 399.91C308.005 399.97 307.909 400 307.789 400H306.871ZM314.611 395.59L312.181 389.2L309.751 395.59H314.611ZM346.51 400.18C345.514 400.18 344.65 400.024 343.918 399.712C343.198 399.4 342.646 398.992 342.262 398.488C341.878 397.972 341.674 397.42 341.65 396.832C341.65 396.736 341.686 396.652 341.758 396.58C341.842 396.496 341.938 396.454 342.046 396.454H342.964C343.192 396.454 343.348 396.574 343.432 396.814C343.54 397.318 343.846 397.75 344.35 398.11C344.866 398.47 345.586 398.65 346.51 398.65C347.506 398.65 348.256 398.476 348.76 398.128C349.264 397.768 349.516 397.27 349.516 396.634C349.516 396.226 349.39 395.896 349.138 395.644C348.898 395.392 348.538 395.17 348.058 394.978C347.578 394.786 346.858 394.546 345.898 394.258C344.962 393.994 344.218 393.712 343.666 393.412C343.114 393.112 342.7 392.74 342.424 392.296C342.148 391.852 342.01 391.294 342.01 390.622C342.01 389.974 342.184 389.392 342.532 388.876C342.892 388.36 343.402 387.958 344.062 387.67C344.722 387.37 345.508 387.22 346.42 387.22C347.356 387.22 348.16 387.388 348.832 387.724C349.504 388.048 350.014 388.462 350.362 388.966C350.71 389.47 350.896 389.974 350.92 390.478C350.92 390.574 350.884 390.658 350.812 390.73C350.752 390.802 350.662 390.838 350.542 390.838H349.588C349.336 390.838 349.18 390.724 349.12 390.496C349.048 389.992 348.766 389.578 348.274 389.254C347.782 388.918 347.164 388.75 346.42 388.75C345.604 388.75 344.962 388.906 344.494 389.218C344.026 389.53 343.792 389.992 343.792 390.604C343.792 391.012 343.9 391.348 344.116 391.612C344.344 391.876 344.686 392.11 345.142 392.314C345.598 392.506 346.264 392.728 347.14 392.98C348.16 393.256 348.964 393.544 349.552 393.844C350.14 394.132 350.578 394.498 350.866 394.942C351.154 395.374 351.298 395.926 351.298 396.598C351.298 397.714 350.866 398.59 350.002 399.226C349.138 399.862 347.974 400.18 346.51 400.18ZM376.931 400C376.811 400 376.709 399.964 376.625 399.892C376.553 399.808 376.517 399.706 376.517 399.586V387.832C376.517 387.7 376.553 387.598 376.625 387.526C376.709 387.442 376.811 387.4 376.931 387.4H377.831C377.963 387.4 378.065 387.442 378.137 387.526C378.221 387.598 378.263 387.7 378.263 387.832V392.296L383.069 387.688C383.261 387.496 383.495 387.4 383.771 387.4H384.743C384.839 387.4 384.923 387.436 384.995 387.508C385.067 387.58 385.103 387.664 385.103 387.76C385.103 387.856 385.079 387.934 385.031 387.994L379.469 393.43L385.391 399.388C385.451 399.46 385.481 399.544 385.481 399.64C385.481 399.736 385.445 399.82 385.373 399.892C385.301 399.964 385.217 400 385.121 400H384.113C383.849 400 383.615 399.898 383.411 399.694L378.263 394.636V399.586C378.263 399.706 378.221 399.808 378.137 399.892C378.053 399.964 377.951 400 377.831 400H376.931ZM410.602 400C410.482 400 410.38 399.964 410.296 399.892C410.224 399.808 410.188 399.706 410.188 399.586V387.832C410.188 387.7 410.224 387.598 410.296 387.526C410.38 387.442 410.482 387.4 410.602 387.4H418.036C418.156 387.4 418.252 387.442 418.324 387.526C418.408 387.598 418.45 387.7 418.45 387.832V388.516C418.45 388.636 418.414 388.738 418.342 388.822C418.27 388.894 418.168 388.93 418.036 388.93H411.916V392.872H417.64C417.76 392.872 417.856 392.914 417.928 392.998C418.012 393.07 418.054 393.172 418.054 393.304V393.97C418.054 394.09 418.012 394.192 417.928 394.276C417.856 394.348 417.76 394.384 417.64 394.384H411.916V398.47H418.18C418.312 398.47 418.414 398.506 418.486 398.578C418.558 398.65 418.594 398.752 418.594 398.884V399.586C418.594 399.706 418.552 399.808 418.468 399.892C418.396 399.964 418.3 400 418.18 400H410.602ZM447.744 400C447.624 400 447.522 399.964 447.438 399.892C447.366 399.808 447.33 399.706 447.33 399.586V395.338L442.992 387.994C442.992 387.97 442.986 387.934 442.974 387.886C442.95 387.838 442.938 387.796 442.938 387.76C442.938 387.664 442.974 387.58 443.046 387.508C443.118 387.436 443.202 387.4 443.298 387.4H444.234C444.438 387.4 444.594 387.502 444.702 387.706L448.212 393.538L451.722 387.706C451.854 387.502 452.016 387.4 452.208 387.4H453.126C453.234 387.4 453.324 387.436 453.396 387.508C453.468 387.58 453.504 387.664 453.504 387.76C453.504 387.82 453.48 387.898 453.432 387.994L449.112 395.338V399.586C449.112 399.706 449.07 399.808 448.986 399.892C448.902 399.964 448.8 400 448.68 400H447.744Z" fill="white"/>
</svg>
